<svg xmlns="http://www.w3.org/2000/svg" width="13.32" height="10.688" viewBox="0 0 13.32 10.688">
  <metadata><?xpacket begin="﻿" id="W5M0MpCehiHzreSzNTczkc9d"?>
<x:xmpmeta xmlns:x="adobe:ns:meta/" x:xmptk="Adobe XMP Core 5.6-c138 79.159824, 2016/09/14-01:09:01        ">
   <rdf:RDF xmlns:rdf="http://www.w3.org/1999/02/22-rdf-syntax-ns#">
      <rdf:Description rdf:about=""/>
   </rdf:RDF>
</x:xmpmeta>
                                                                                                    
                                                                                                    
                                                                                                    
                                                                                                    
                                                                                                    
                                                                                                    
                                                                                                    
                                                                                                    
                                                                                                    
                                                                                                    
                                                                                                    
                                                                                                    
                                                                                                    
                                                                                                    
                                                                                                    
                                                                                                    
                                                                                                    
                                                                                                    
                                                                                                    
                                                                                                    
                           
<?xpacket end="w"?></metadata>
<defs>
    <style>
      .cls-1 {
        fill: #132f30;
        fill-rule: evenodd;
      }
    </style>
  </defs>
  <path id="_" data-name="" class="cls-1" d="M1391.84,22.08l-5.34,3.344-5.34-3.344v1.344l5.34,3.313,5.34-3.313V22.08Zm0.94-.937a1.276,1.276,0,0,1,.38.937v8a1.276,1.276,0,0,1-.38.938,1.381,1.381,0,0,1-.94.406h-10.68a1.381,1.381,0,0,1-.94-0.406,1.276,1.276,0,0,1-.38-0.937v-8a1.276,1.276,0,0,1,.38-0.937,1.383,1.383,0,0,1,.94-0.406h10.68A1.383,1.383,0,0,1,1392.78,21.143Z" transform="translate(-1379.84 -20.75)"/>
</svg>
